<svg width="20" height="16" viewBox="0 0 20 16" fill="none" xmlns="http://www.w3.org/2000/svg">
<path d="M6.02683 3.36695C5.72703 2.35127 4.91324 2.46259 4.35683 2.93565C2.9862 4.20173 1.20154 6.85915 2.34374 10.6857C3.30031 13.9274 7.28064 16.0005 7.28064 16.0005H2.64064C2.64064 16.0005 0.244811 13.3152 0.0306387 10.157C-0.240621 6.16397 1.35857 3.64566 3.21463 2.00397C4.95645 0.459604 6.61263 0.000488281 6.61263 0.000488281L10.0005 11.1005L13.3883 0.000488281C13.3883 0.000488281 15.0445 0.459605 16.7863 2.00397C18.6424 3.64566 20.2415 6.16397 19.9703 10.157C19.7561 13.3152 17.3603 16.0005 17.3603 16.0005H12.7203C12.7203 16.0005 16.7003 13.9274 17.6572 10.6857C18.7994 6.85958 17.0147 4.20216 15.6441 2.93565C15.0873 2.46259 14.2735 2.35127 13.9741 3.36695C12.9461 6.60869 10.0009 15.897 10.0009 15.897C10.0009 15.897 7.05564 6.60559 6.02767 3.36695H6.02683Z" fill="white"/>
</svg>
